<svg width="18" height="18" viewBox="0 0 18 18" fill="none" xmlns="http://www.w3.org/2000/svg">
<path fill-rule="evenodd" clip-rule="evenodd" d="M10.7677 8.3608H13.0743C13.424 8.3608 13.6988 8.07166 13.6988 7.72299C13.6988 7.36581 13.424 7.08517 13.0743 7.08517H10.7677C10.418 7.08517 10.1432 7.36581 10.1432 7.72299C10.1432 8.07166 10.418 8.3608 10.7677 8.3608ZM15.8138 3.93941C16.3217 3.93941 16.6548 4.118 16.9879 4.5092C17.321 4.90039 17.3792 5.46167 17.3043 5.97108L16.5133 11.5499C16.3634 12.6222 15.4641 13.4123 14.4066 13.4123H5.32198C4.21451 13.4123 3.29856 12.5457 3.20696 11.4231L2.44089 2.15267L1.18354 1.93156C0.850465 1.87203 0.617313 1.54037 0.675601 1.2002C0.733889 0.852375 1.05864 0.62191 1.40004 0.673786L3.38599 0.979088C3.6691 1.03096 3.87727 1.26823 3.90225 1.55738L4.06046 3.46233C4.08544 3.73531 4.30194 3.93941 4.5684 3.93941H15.8138ZM5.18858 14.7564C4.48913 14.7564 3.9229 15.3347 3.9229 16.0491C3.9229 16.7549 4.48913 17.3332 5.18858 17.3332C5.87971 17.3332 6.44594 16.7549 6.44594 16.0491C6.44594 15.3347 5.87971 14.7564 5.18858 14.7564ZM14.5563 14.7564C13.8568 14.7564 13.2906 15.3347 13.2906 16.0491C13.2906 16.7549 13.8568 17.3332 14.5563 17.3332C15.2474 17.3332 15.8136 16.7549 15.8136 16.0491C15.8136 15.3347 15.2474 14.7564 14.5563 14.7564Z" fill="#2076FF"/>
</svg>
